<?xml version="1.0" encoding="UTF-8"?>
<svg version="1.1" xmlns="http://www.w3.org/2000/svg" width="512" height="512">
<path d="M0 0 C0.97088562 0.00215515 1.94177124 0.0043103 2.94207764 0.00653076 C17.27751026 0.05757173 31.28525803 0.44028152 45.375 3.3125 C46.40109375 3.51649414 47.4271875 3.72048828 48.484375 3.93066406 C108.37765666 16.11866303 163.55791322 47.75891661 201.375 96.3125 C202.52162109 97.71628906 202.52162109 97.71628906 203.69140625 99.1484375 C211.52961441 108.93676165 217.99776552 119.53152658 224.375 130.3125 C224.95894531 131.28993164 224.95894531 131.28993164 225.5546875 132.28710938 C247.38644274 169.26156702 256.85781833 213.36793736 256.6875 255.9375 C256.68534485 256.90838562 256.6831897 257.87927124 256.68096924 258.87957764 C256.62992827 273.21501026 256.24721848 287.22275803 253.375 301.3125 C253.17100586 302.33859375 252.96701172 303.3646875 252.75683594 304.421875 C245.41449442 340.50301761 231.76207046 374.23793119 210.375 404.3125 C209.92576172 404.95106934 209.47652344 405.58963867 209.01367188 406.24755859 C201.31573742 417.11727759 192.67340476 426.79450751 183.375 436.3125 C182.29685201 437.43096742 181.21872581 438.54945585 180.140625 439.66796875 C173.93319365 446.04906924 167.39229104 451.82749643 160.375 457.3125 C159.43785156 458.07820313 158.50070312 458.84390625 157.53515625 459.6328125 C147.74704105 467.46834358 137.15445957 473.936161 126.375 480.3125 C125.72337891 480.70179688 125.07175781 481.09109375 124.40039062 481.4921875 C87.64493871 503.1946297 43.65783815 512.79917441 1.3125 512.625 C0.36690216 512.62284485 -0.57869568 512.6206897 -1.552948 512.61846924 C-67.86181167 512.37637671 -129.64101714 487.01354447 -177.625 441.3125 C-178.22393066 440.74225098 -178.82286133 440.17200195 -179.43994141 439.58447266 C-187.78310078 431.58149888 -195.42845187 423.36270159 -202.31445312 414.07177734 C-203.64297091 412.28837587 -204.99860037 410.52840484 -206.359375 408.76953125 C-213.71866971 399.14383888 -219.83269954 388.94390862 -225.625 378.3125 C-225.9869043 377.6520166 -226.34880859 376.9915332 -226.72167969 376.31103516 C-238.85118182 353.90337595 -246.72404726 329.87681569 -251.875 305 C-252.02630371 304.27321045 -252.17760742 303.5464209 -252.33349609 302.79760742 C-255.31416968 287.46145241 -255.99985124 272.27164117 -255.9375 256.6875 C-255.93534485 255.71661438 -255.9331897 254.74572876 -255.93096924 253.74542236 C-255.87992827 239.40998974 -255.49721848 225.40224197 -252.625 211.3125 C-252.42100586 210.28640625 -252.21701172 209.2603125 -252.00683594 208.203125 C-242.92422076 163.57006993 -223.87837333 122.51996164 -193.625 88.3125 C-192.90054688 87.4771875 -192.17609375 86.641875 -191.4296875 85.78125 C-181.6849286 74.70602587 -171.28537586 64.36135088 -159.625 55.3125 C-158.69042969 54.549375 -157.75585938 53.78625 -156.79296875 53 C-147.00443247 45.15911856 -136.40748792 38.69063034 -125.625 32.3125 C-124.97337891 31.92320313 -124.32175781 31.53390625 -123.65039062 31.1328125 C-86.67593298 9.30105726 -42.56956264 -0.17031833 0 0 Z " fill="#FEFDFE" transform="translate(255.625,-0.3125)"/>
<path d="M0 0 C71.28 0 142.56 0 216 0 C216 71.94 216 143.88 216 218 C185.34176368 218 155.73208661 213.6072105 128 200 C127.40606445 199.71253906 126.81212891 199.42507813 126.20019531 199.12890625 C103.61484108 188.18256061 83.58818236 175.26709088 65.63867188 157.60791016 C64.11295041 156.11083007 62.56841604 154.63686739 61.015625 153.16796875 C54.45366648 146.8377178 48.78212742 140.05313831 43.32763672 132.77197266 C42.46548982 131.62128083 41.59762877 130.47484016 40.72314453 129.33349609 C18.61046291 100.43418122 5.54089469 64.90208123 1 29 C0.84313721 27.88987549 0.84313721 27.88987549 0.68310547 26.75732422 C-0.43225355 17.77431968 0 9.21516089 0 0 Z " fill="#072357" transform="translate(40,254)"/>
<path d="M0 0 C25.593658 0 25.593658 0 33.8125 1.5625 C34.79347656 1.73958496 35.77445312 1.91666992 36.78515625 2.09912109 C90.39233103 12.27802151 140.18174178 41.00046578 172.75732422 85.31738281 C173.97472047 86.96577082 175.22061277 88.58878066 176.47265625 90.2109375 C203.41858462 125.76014823 216 169.91226187 216 214 C144.72 214 73.44 214 0 214 C0 143.38 0 72.76 0 0 Z " fill="#DA121A" transform="translate(256,40)"/>
<path d="M0 0 C0.97088562 0.00215515 1.94177124 0.0043103 2.94207764 0.00653076 C17.27751026 0.05757173 31.28525803 0.44028152 45.375 3.3125 C46.40109375 3.51649414 47.4271875 3.72048828 48.484375 3.93066406 C108.37765666 16.11866303 163.55791322 47.75891661 201.375 96.3125 C202.52162109 97.71628906 202.52162109 97.71628906 203.69140625 99.1484375 C211.52961441 108.93676165 217.99776552 119.53152658 224.375 130.3125 C224.95894531 131.28993164 224.95894531 131.28993164 225.5546875 132.28710938 C247.38644274 169.26156702 256.85781833 213.36793736 256.6875 255.9375 C256.68534485 256.90838562 256.6831897 257.87927124 256.68096924 258.87957764 C256.62992827 273.21501026 256.24721848 287.22275803 253.375 301.3125 C253.17100586 302.33859375 252.96701172 303.3646875 252.75683594 304.421875 C245.41449442 340.50301761 231.76207046 374.23793119 210.375 404.3125 C209.92576172 404.95106934 209.47652344 405.58963867 209.01367188 406.24755859 C201.31573742 417.11727759 192.67340476 426.79450751 183.375 436.3125 C182.29685201 437.43096742 181.21872581 438.54945585 180.140625 439.66796875 C173.93319365 446.04906924 167.39229104 451.82749643 160.375 457.3125 C159.43785156 458.07820313 158.50070312 458.84390625 157.53515625 459.6328125 C147.74704105 467.46834358 137.15445957 473.936161 126.375 480.3125 C125.72337891 480.70179688 125.07175781 481.09109375 124.40039062 481.4921875 C87.64493871 503.1946297 43.65783815 512.79917441 1.3125 512.625 C0.36690216 512.62284485 -0.57869568 512.6206897 -1.552948 512.61846924 C-67.86181167 512.37637671 -129.64101714 487.01354447 -177.625 441.3125 C-178.22393066 440.74225098 -178.82286133 440.17200195 -179.43994141 439.58447266 C-187.78310078 431.58149888 -195.42845187 423.36270159 -202.31445312 414.07177734 C-203.64297091 412.28837587 -204.99860037 410.52840484 -206.359375 408.76953125 C-213.71866971 399.14383888 -219.83269954 388.94390862 -225.625 378.3125 C-225.9869043 377.6520166 -226.34880859 376.9915332 -226.72167969 376.31103516 C-238.85118182 353.90337595 -246.72404726 329.87681569 -251.875 305 C-252.02630371 304.27321045 -252.17760742 303.5464209 -252.33349609 302.79760742 C-255.31416968 287.46145241 -255.99985124 272.27164117 -255.9375 256.6875 C-255.93534485 255.71661438 -255.9331897 254.74572876 -255.93096924 253.74542236 C-255.87992827 239.40998974 -255.49721848 225.40224197 -252.625 211.3125 C-252.42100586 210.28640625 -252.21701172 209.2603125 -252.00683594 208.203125 C-242.92422076 163.57006993 -223.87837333 122.51996164 -193.625 88.3125 C-192.90054688 87.4771875 -192.17609375 86.641875 -191.4296875 85.78125 C-181.6849286 74.70602587 -171.28537586 64.36135088 -159.625 55.3125 C-158.69042969 54.549375 -157.75585938 53.78625 -156.79296875 53 C-147.00443247 45.15911856 -136.40748792 38.69063034 -125.625 32.3125 C-124.97337891 31.92320313 -124.32175781 31.53390625 -123.65039062 31.1328125 C-86.67593298 9.30105726 -42.56956264 -0.17031833 0 0 Z M-106.75292969 45.32568359 C-108.61867942 46.30916826 -110.49798831 47.26069856 -112.3828125 48.20703125 C-165.36720226 75.13080757 -205.39572107 125.6934216 -224.625 181.3125 C-226.98849994 188.89085651 -228.87507565 196.5726257 -230.625 204.3125 C-230.79080566 205.02051758 -230.95661133 205.72853516 -231.12744141 206.45800781 C-238.79742778 239.46119302 -238.43724228 277.43132121 -230.13525391 310.27929688 C-229.6646536 312.15449273 -229.22725309 314.0379373 -228.79296875 315.921875 C-224.43798228 333.81907969 -217.40338857 351.14690294 -208.625 367.3125 C-208.11549805 368.27712158 -208.11549805 368.27712158 -207.59570312 369.26123047 C-199.12070435 385.29981055 -188.66919831 399.77421126 -176.625 413.3125 C-176.18333496 413.81587891 -175.74166992 414.31925781 -175.28662109 414.83789062 C-138.29509154 456.92098887 -85.2660459 484.75253804 -29.625 491.3125 C-28.92270264 491.4045874 -28.22040527 491.4966748 -27.49682617 491.59155273 C20.05582085 497.21540739 69.33965601 488.13891228 111.375 465.3125 C112.33962158 464.80299805 112.33962158 464.80299805 113.32373047 464.28320312 C129.35194855 455.81367977 143.86721752 445.37872386 157.375 433.3125 C158.18662598 432.59344482 158.18662598 432.59344482 159.01464844 431.85986328 C178.16894255 414.823214 193.26713848 395.29527077 206.375 373.3125 C206.74431641 372.70325684 207.11363281 372.09401367 207.49414062 371.46630859 C212.68026984 362.81201744 216.41774182 353.61405346 220.125 344.25 C220.81541382 342.51085327 220.81541382 342.51085327 221.51977539 340.73657227 C228.53670919 322.61684655 233.3456303 303.64174408 235.375 284.3125 C235.46185059 283.56347412 235.54870117 282.81444824 235.63818359 282.04272461 C240.47060657 236.37762886 232.96080159 189.85511189 211.36181641 149.18457031 C210.37833174 147.31882058 209.42680144 145.43951169 208.48046875 143.5546875 C188.41292712 104.06295964 155.03286939 72.76709148 117.375 50.3125 C116.46113525 49.75852539 116.46113525 49.75852539 115.52880859 49.19335938 C106.87451744 44.00723016 97.67655346 40.26975818 88.3125 36.5625 C87.15306885 36.10222412 85.9936377 35.64194824 84.79907227 35.16772461 C76.77235299 32.05934655 68.67783336 29.56869755 60.375 27.3125 C59.05662338 26.92806569 57.73875562 26.54187177 56.421875 26.15234375 C3.32788206 11.62069402 -58.51459252 19.7076542 -106.75292969 45.32568359 Z " fill="#4E4E4E" transform="translate(255.625,-0.3125)"/>
<path d="M0 0 C0.66 0 1.32 0 2 0 C3.36998134 4.37394885 4.7391691 8.74814508 6.10766602 13.12255859 C6.57197356 14.60634849 7.03648668 16.09007409 7.5012207 17.57373047 C8.17455074 19.72345803 8.84710658 21.8734266 9.51953125 24.0234375 C9.72278519 24.67178558 9.92603912 25.32013367 10.13545227 25.98812866 C11.7997956 31.31377589 13.3963455 36.65448499 15 42 C29.85 42 44.7 42 60 42 C56.73783498 45.26216502 53.55576922 47.88577137 49.8125 50.5 C49.21679199 50.92071777 48.62108398 51.34143555 48.00732422 51.77490234 C46.71098186 52.68983049 45.41340296 53.60300852 44.11474609 54.51464844 C41.84031199 56.11216138 39.57020387 57.71568901 37.30078125 59.3203125 C33.20304206 62.21712926 29.10223947 65.10956008 25 68 C26.48473128 75.3617926 28.64453348 82.37386035 31 89.5 C33.35546652 96.62613965 35.51526872 103.6382074 37 111 C31.14046118 107.83820858 25.88885795 104.11024955 20.5625 100.125 C19.75490234 99.52558594 18.94730469 98.92617188 18.11523438 98.30859375 C17.31537109 97.71433594 16.51550781 97.12007813 15.69140625 96.5078125 C14.90523926 95.92676758 14.11907227 95.34572266 13.30908203 94.74707031 C11.78044305 93.59048958 10.27521118 92.40224596 8.79638672 91.18261719 C8.10947754 90.62477539 7.42256836 90.06693359 6.71484375 89.4921875 C5.8175354 88.73591064 5.8175354 88.73591064 4.90209961 87.96435547 C2.22252687 86.60582481 0.81496669 87.08603201 -2 88 C-4.02182458 89.10292409 -4.02182458 89.10292409 -5.8984375 90.5546875 C-6.61854004 91.08231689 -7.33864258 91.60994629 -8.08056641 92.15356445 C-8.83772949 92.72163818 -9.59489258 93.28971191 -10.375 93.875 C-11.5513501 94.74161255 -11.5513501 94.74161255 -12.75146484 95.62573242 C-14.37142664 96.82003349 -15.98876409 98.01790205 -17.60351562 99.21923828 C-20.59746765 101.4439618 -23.60808941 103.64537037 -26.61962891 105.84619141 C-29.41726526 107.89179695 -32.20875886 109.94567946 -35 112 C-36 110 -36 110 -35.2590332 107.20947266 C-34.86031006 106.0394873 -34.46158691 104.86950195 -34.05078125 103.6640625 C-33.83689255 103.02947113 -33.62300385 102.39487976 -33.40263367 101.74105835 C-32.71291418 99.69992332 -32.01292946 97.66248165 -31.3125 95.625 C-30.85933475 94.29059915 -30.4068533 92.95596587 -29.95507812 91.62109375 C-29.06810388 89.00302875 -28.17740945 86.386278 -27.28369141 83.77050781 C-25.49685955 78.52215651 -23.74485903 73.26243047 -22 68 C-22.58612061 67.72019287 -23.17224121 67.44038574 -23.77612305 67.15209961 C-25.84900015 66.07822684 -27.67977488 64.9145774 -29.58203125 63.56640625 C-30.26015869 63.08727783 -30.93828613 62.60814941 -31.63696289 62.11450195 C-32.35489014 61.60234131 -33.07281738 61.09018066 -33.8125 60.5625 C-34.5542749 60.03551514 -35.2960498 59.50853027 -36.06030273 58.96557617 C-41.24546337 55.27258771 -46.41434248 51.55689865 -51.5625 47.8125 C-52.21130127 47.34336182 -52.86010254 46.87422363 -53.52856445 46.39086914 C-55.03791575 45.28590774 -56.52206212 44.14663885 -58 43 C-58 42.67 -58 42.34 -58 42 C-43.15 42 -28.3 42 -13 42 C-12.34 39.03 -11.68 36.06 -11 33 C-10.16933411 30.27926585 -9.31567108 27.59237279 -8.3984375 24.90234375 C-8.0364476 23.82274132 -8.0364476 23.82274132 -7.66714478 22.72132874 C-6.90737096 20.45858703 -6.14131532 18.19803357 -5.375 15.9375 C-4.85374655 14.38881321 -4.33290964 12.83998616 -3.8125 11.29101562 C-2.54646623 7.52570844 -1.27480038 3.7623477 0 0 Z " fill="#DA141C" transform="translate(361,297)"/>
<path d="M0 0 C2.43145416 2.43145416 2.82959827 4.20877757 3.8046875 7.49609375 C4.14113281 8.61306641 4.47757813 9.73003906 4.82421875 10.88085938 C5.17097656 12.05455078 5.51773438 13.22824219 5.875 14.4375 C8.12078446 21.98179875 10.42967256 29.43283152 13.27001953 36.77758789 C14 39 14 39 14 42 C28.85 42 43.7 42 59 42 C56.36079434 44.63920566 54.33909706 46.61119698 51.3828125 48.6640625 C50.69952881 49.14198242 50.01624512 49.61990234 49.31225586 50.11230469 C48.59046143 50.61149414 47.86866699 51.11068359 47.125 51.625 C45.60781049 52.68452015 44.09088793 53.74442265 42.57421875 54.8046875 C41.81286621 55.33545898 41.05151367 55.86623047 40.26708984 56.41308594 C36.80696394 58.83509955 33.37118231 61.29070468 29.9375 63.75 C29.33631348 64.18006348 28.73512695 64.61012695 28.11572266 65.05322266 C26.74348279 66.03501746 25.37168498 67.01743009 24 68 C26.28998552 76.72618122 28.92232193 85.33166112 31.625 93.9375 C32.43109582 96.50867866 33.23541257 99.08039787 34.0390625 101.65234375 C34.39178223 102.77632568 34.74450195 103.90030762 35.10791016 105.05834961 C35.80723472 107.3643599 36.44806024 109.65550555 37 112 C30.63531247 107.84551169 24.47119408 103.47523156 18.375 98.9375 C15.98501782 97.16410268 13.59449126 95.39193495 11.19433594 93.63232422 C9.7879422 92.58613502 8.39848208 91.51654676 7.03222656 90.41845703 C3.68255079 87.66500187 3.68255079 87.66500187 -0.45581055 87.21289062 C-3.07568697 88.02341568 -4.74365537 88.95892105 -6.93359375 90.58984375 C-7.65885254 91.12262939 -8.38411133 91.65541504 -9.13134766 92.2043457 C-9.89237793 92.77628662 -10.6534082 93.34822754 -11.4375 93.9375 C-13.03747443 95.11757535 -14.63773865 96.29725788 -16.23828125 97.4765625 C-17.43251709 98.36263184 -17.43251709 98.36263184 -18.65087891 99.26660156 C-22.11389332 101.82193334 -25.61697639 104.3195093 -29.125 106.8125 C-30.27351229 107.63140553 -31.42195781 108.45040472 -32.5703125 109.26953125 C-33.37210938 109.84058594 -34.17390625 110.41164063 -35 111 C-36.40426754 106.78719737 -34.83450526 103.7847143 -33.4375 99.75390625 C-32.88278669 98.09571176 -32.32810002 96.43750836 -31.7734375 94.77929688 C-30.88731225 92.16689931 -29.99768697 89.5557246 -29.10644531 86.94506836 C-28.24982454 84.42583319 -27.40576128 81.90263849 -26.5625 79.37890625 C-26.29171631 78.59963272 -26.02093262 77.82035919 -25.74194336 77.01747131 C-24.49161115 73.26582843 -23.67225726 70.76542579 -25 67 C-26.41259876 65.56256333 -26.41259876 65.56256333 -28.25390625 64.40625 C-28.93654541 63.93872314 -29.61918457 63.47119629 -30.32250977 62.98950195 C-31.06170654 62.49796631 -31.80090332 62.00643066 -32.5625 61.5 C-34.10558502 60.44347481 -35.64721372 59.38482 -37.1875 58.32421875 C-37.98027344 57.78071777 -38.77304688 57.2372168 -39.58984375 56.67724609 C-43.47660209 53.97242135 -47.2740246 51.15267171 -51.0625 48.3125 C-52.10676147 47.53712891 -52.10676147 47.53712891 -53.17211914 46.74609375 C-54.80118985 45.5233096 -56.40378377 44.26537195 -58 43 C-58 42.67 -58 42.34 -58 42 C-43.48 41.67 -28.96 41.34 -14 41 C-10.50934691 29.75346253 -10.50934691 29.75346253 -7.0300293 18.50341797 C-6.58683247 17.08288087 -6.14325401 15.66246275 -5.69921875 14.2421875 C-5.36597595 13.15466187 -5.36597595 13.15466187 -5.02600098 12.04516602 C-3.69409787 7.80473302 -2.1081598 3.93487079 0 0 Z " fill="#092558" transform="translate(150,101)"/>
</svg>
